<svg width="180" height="40" viewBox="0 0 180 40" fill="none" xmlns="http://www.w3.org/2000/svg">
  <g>
    <rect width="180" height="40" rx="8" fill="#e0e0e0"/>
    <text x="50" y="25" font-family="Arial" font-size="16" fill="#333">DocAppoint</text>
    <path d="M20 8C16.68 8 14 10.68 14 14C14 15.89 15.03 17.57 16.5 18.57C16.87 18.83 17.1 19.3 17.1 19.78V23C17.1 24.66 15.76 26 14.1 26C12.44 26 11.1 24.66 11.1 23V19.78C11.1 19.3 11.33 18.83 11.7 18.57C13.17 17.57 14.2 15.89 14.2 14C14.2 10.68 11.52 8 8.2 8C4.88 8 2.2 10.68 2.2 14C2.2 17.32 4.88 20 8.2 20H8.5V23C8.5 25.55 10.95 28 13.5 28C16.05 28 18.5 25.55 18.5 23V20H18.8C22.12 20 24.8 17.32 24.8 14C24.8 10.68 22.12 8 18.8 8H20Z" fill="#333"/>
    <circle cx="20" cy="14" r="3.5" fill="#333"/>
  </g>
</svg>
